<svg id="Layer_1" data-name="Layer 1" xmlns="http://www.w3.org/2000/svg" xmlns:xlink="http://www.w3.org/1999/xlink" viewBox="0 0 491.29 833.29"><defs><style>.cls-1,.cls-21,.cls-3,.cls-4,.cls-6{fill:none;}.cls-17,.cls-19,.cls-2,.cls-20{fill:#fff;}.cls-17,.cls-18,.cls-3,.cls-4{stroke:#026666;}.cls-3,.cls-4,.cls-43{stroke-miterlimit:10;}.cls-17,.cls-19,.cls-20,.cls-21,.cls-3,.cls-4{stroke-width:4px;}.cls-4{stroke-linecap:round;}.cls-36,.cls-43,.cls-5{fill:#010101;}.cls-20,.cls-43,.cls-6{stroke:#1d1d1b;}.cls-17,.cls-18,.cls-19,.cls-20,.cls-21,.cls-22,.cls-6{stroke-linejoin:round;}.cls-6{stroke-width:3px;}.cls-33,.cls-7,.cls-8{fill:#1d1d1b;}.cls-8{font-size:12px;}.cls-24,.cls-27,.cls-33,.cls-8{font-family:SourceSansPro-Regular, Source Sans Pro;}.cls-9{letter-spacing:0em;}.cls-10{letter-spacing:-0.01em;}.cls-11{letter-spacing:-0.02em;}.cls-12{letter-spacing:-0.02em;}.cls-13{letter-spacing:-0.04em;}.cls-14{letter-spacing:-0.01em;}.cls-15{letter-spacing:-0.02em;}.cls-16,.cls-18{fill:#026666;}.cls-19{stroke:#878787;}.cls-21,.cls-22{stroke:#46807a;}.cls-21{stroke-linecap:square;}.cls-22{fill:#46807a;}.cls-23,.cls-24,.cls-27,.cls-33,.cls-50,.cls-52,.cls-60{isolation:isolate;}.cls-24,.cls-27,.cls-33{font-size:16px;}.cls-24{fill:#706f6f;}.cls-25{letter-spacing:0.03em;}.cls-26{letter-spacing:0em;}.cls-27,.cls-46,.cls-50,.cls-52,.cls-60{fill:#0a0c0c;}.cls-28{letter-spacing:-0.02em;}.cls-29{letter-spacing:0em;}.cls-30{letter-spacing:-0.02em;}.cls-31{letter-spacing:-0.01em;}.cls-32{letter-spacing:-0.01em;}.cls-34{letter-spacing:0em;}.cls-35{letter-spacing:0.01em;}.cls-36{fill-rule:evenodd;}.cls-37{letter-spacing:0.02em;}.cls-38{letter-spacing:-0.04em;}.cls-39{letter-spacing:-0.02em;}.cls-40{letter-spacing:-0.03em;}.cls-41{letter-spacing:-0.01em;}.cls-42{letter-spacing:0em;}.cls-43{stroke-width:2px;}.cls-44{fill:#f2f2f2;}.cls-45{fill:#dee0e1;}.cls-47{fill:#26b198;}.cls-48{fill:#00823b;}.cls-49{fill:#6f777b;}.cls-50{font-size:2.31px;}.cls-50,.cls-52,.cls-60{font-family:SegoeUI, Segoe UI;}.cls-51{letter-spacing:-0.03em;}.cls-52,.cls-60{font-size:4.62px;}.cls-52{letter-spacing:-0.03em;}.cls-53{letter-spacing:0em;}.cls-54{clip-path:url(#clip-path);}.cls-55{clip-path:url(#clip-path-2);}.cls-56{clip-path:url(#clip-path-3);}.cls-57{clip-path:url(#clip-path-4);}.cls-58{clip-path:url(#clip-path-5);}.cls-59{clip-path:url(#clip-path-6);}.cls-61{letter-spacing:-0.03em;}</style><clipPath id="clip-path" transform="translate(-53.82)"><circle class="cls-1" cx="195.17" cy="787.51" r="1.73"/></clipPath><clipPath id="clip-path-2" transform="translate(-53.82)"><circle class="cls-1" cx="195.17" cy="787.51" r="1.16"/></clipPath><clipPath id="clip-path-3" transform="translate(-53.82)"><circle class="cls-1" cx="195.17" cy="782.89" r="1.73"/></clipPath><clipPath id="clip-path-4" transform="translate(-53.82)"><circle class="cls-1" cx="195.17" cy="782.89" r="1.16"/></clipPath><clipPath id="clip-path-5" transform="translate(-53.82)"><circle class="cls-1" cx="195.17" cy="778.26" r="1.73"/></clipPath><clipPath id="clip-path-6" transform="translate(-53.82)"><circle class="cls-1" cx="195.17" cy="778.26" r="1.16"/></clipPath></defs><rect class="cls-2" width="491.29" height="833.29"/><line class="cls-3" x1="216.78" y1="729.07" x2="216.78" y2="748.24"/><line class="cls-3" x1="267.34" y1="564.92" x2="267.34" y2="584.1"/><path class="cls-4" d="M128.37,601.51v-9.78a7.5,7.5,0,0,1,7.36-7.63H501.56a8.5,8.5,0,0,1,8.34,8.66v8.75" transform="translate(-53.82)"/><path class="cls-5" d="M401.07,610.6H362.6a3.86,3.86,0,0,0-3.84,3.85v26.92a3.86,3.86,0,0,0,3.84,3.85h38.47a3.84,3.84,0,0,0,3.82-3.85l0-26.92A3.86,3.86,0,0,0,401.07,610.6Zm-2.65,29.59H365.67V615.63h32.75Zm-20.15-2.42-8.56-8.63,3.45-3.47,5.11,5.13,12.65-12.75,3.45,3.47Z" transform="translate(-53.82)"/><path class="cls-5" d="M340.52,610.54H305.79a4.34,4.34,0,0,0-4.32,4.35l0,26.05a4.36,4.36,0,0,0,4.35,4.34h34.73a4.36,4.36,0,0,0,4.34-4.34V614.89A4.36,4.36,0,0,0,340.52,610.54Zm0,30.4H305.79V621.4h34.73Z" transform="translate(-53.82)"/><path class="cls-5" d="M498.42,633.65a1.87,1.87,0,0,0-.9-1.62L488.87,627,480.21,632a1.9,1.9,0,0,0-.91,1.62v9.57a1.92,1.92,0,0,0,1.92,1.91h15.3a1.92,1.92,0,0,0,1.91-1.91Zm-9.55,4.78L481,633.5l7.9-4.63,7.9,4.63Z" transform="translate(-53.82)"/><path class="cls-5" d="M496.49,610.4H481.25a1.9,1.9,0,0,0-1.9,1.9v17.14l3.81-3.81h13.34a1.91,1.91,0,0,0,1.9-1.9V612.3A1.91,1.91,0,0,0,496.49,610.4Zm-13.34,6.66h11.43V619H483.15Zm7.62,4.76h-7.62v-1.9h7.62Zm3.81-5.71H483.15v-1.9h11.43Z" transform="translate(-53.82)"/><line class="cls-6" x1="121.76" y1="627.91" x2="129.63" y2="627.91"/><polygon class="cls-7" points="128.31 632.4 136.09 627.91 128.31 623.42 128.31 632.4"/><line class="cls-6" x1="174.92" y1="627.91" x2="182.78" y2="627.91"/><polygon class="cls-7" points="181.47 632.4 189.24 627.91 181.47 623.42 181.47 632.4"/><line class="cls-6" x1="232.27" y1="627.76" x2="240.13" y2="627.76"/><polygon class="cls-7" points="238.82 632.25 246.59 627.76 238.82 623.27 238.82 632.25"/><line class="cls-6" x1="290.03" y1="627.76" x2="297.89" y2="627.76"/><polygon class="cls-7" points="296.58 632.25 304.35 627.76 296.58 623.27 296.58 632.25"/><line class="cls-6" x1="350.04" y1="627.91" x2="357.9" y2="627.91"/><polygon class="cls-7" points="356.59 632.4 364.36 627.91 356.59 623.42 356.59 632.4"/><line class="cls-6" x1="410.11" y1="627.91" x2="417.97" y2="627.91"/><polygon class="cls-7" points="416.66 632.4 424.43 627.91 416.66 623.42 416.66 632.4"/><text class="cls-8" transform="translate(91.3 659.59)"><tspan class="cls-9">U</tspan><tspan x="7.69" y="0">ser </tspan><tspan x="-5.27" y="12">d</tspan><tspan class="cls-10" x="1.39" y="12">e</tspan><tspan class="cls-11" x="7.22" y="12">t</tspan><tspan x="11.02" y="12">ails</tspan></text><text class="cls-8" transform="translate(132.94 659.59)">Eligibility <tspan x="-1.22" y="12">que</tspan><tspan class="cls-12" x="17.92" y="12">s</tspan><tspan x="22.71" y="12">tions</tspan></text><text class="cls-8" transform="translate(198.87 659.59)">Book</text><text class="cls-8" transform="translate(260.37 659.59)"><tspan class="cls-13">P</tspan><tspan x="6.28" y="0">ay</tspan></text><text class="cls-8" transform="translate(311.67 659.59)">Su<tspan class="cls-11" x="12.94" y="0">cc</tspan><tspan x="23.38" y="0">ess </tspan><tspan class="cls-14" x="7.51" y="12">p</tspan><tspan x="14" y="12">a</tspan><tspan class="cls-14" x="20.05" y="12">g</tspan><tspan x="25.93" y="12">e</tspan></text><text class="cls-8" transform="translate(366.63 659.59)">Mana<tspan class="cls-14" x="27.38" y="0">g</tspan><tspan x="33.26" y="0">e</tspan><tspan class="cls-10" x="0.62" y="12">r</tspan><tspan x="4.66" y="12">eque</tspan><tspan class="cls-12" x="29.75" y="12">s</tspan><tspan x="34.54" y="12">t</tspan></text><text class="cls-8" transform="translate(419.95 659.59)">N<tspan class="cls-15" x="7.76" y="0">o</tspan><tspan x="14.06" y="0">tify </tspan><tspan x="4.25" y="12">user</tspan></text><line class="cls-3" x1="216.76" y1="701.28" x2="216.76" y2="682.11"/><path class="cls-4" d="M131.88,668.92V675c0,4.35,2.83,7.07,9.47,7.07H400c7.64,0,9.33-2.6,9.33-7.54v-5.65" transform="translate(-53.82)"/><g id="Single_connection" data-name="Single connection"><path id="Connection" class="cls-16" d="M319.14,471.52v58.07h4V471.52Z" transform="translate(-53.82)"/><g id="Dot"><ellipse class="cls-17" cx="267.32" cy="470.85" rx="14" ry="12.43"/></g><path id="Rectangle" class="cls-18" d="M332.52,519.44l-11.38,14.39-11.38-14.39Z" transform="translate(-53.82)"/></g><line class="cls-3" x1="267.34" y1="308.17" x2="267.34" y2="327.34"/><g id="Single_connection-2" data-name="Single connection"><path id="Connection-2" data-name="Connection" class="cls-16" d="M319.14,214.87v58.07h4V214.87Z" transform="translate(-53.82)"/><g id="Dot-2" data-name="Dot"><ellipse class="cls-17" cx="267.32" cy="214.2" rx="14" ry="12.43"/></g><path id="Rectangle-2" data-name="Rectangle" class="cls-18" d="M332.52,262.79l-11.38,14.39-11.38-14.39Z" transform="translate(-53.82)"/></g><g id="Action_State_button" data-name="Action State button"><rect class="cls-19" x="69.37" y="166.78" width="75.88" height="27.79" rx="13.89"/><rect class="cls-19" x="389.37" y="166.78" width="75.88" height="27.79" rx="13.89"/><rect class="cls-20" x="187.32" y="166.78" width="160" height="48.79" rx="24.4"/><g id="Single_to_double_connection" data-name="Single to double connection"><path id="Connection-3" data-name="Connection" class="cls-21" d="M321.14,93.46v12.81c0,13.48,16,13.67,50,13.67h60c40.62,0,49.32,0,50,13.67v25.71" transform="translate(-53.82)"/><path id="Connection_Copy" data-name="Connection Copy" class="cls-21" d="M321.14,93.46v12.81c0,13-15.35,13.67-50,13.67h-60c-41.14,0-49.82,0-50,13.67v25.71" transform="translate(-53.82)"/><path id="Rectangle-3" data-name="Rectangle" class="cls-22" d="M492.52,149.31,481.79,163.7l-12-14.39Z" transform="translate(-53.82)"/><path id="Rectangle-2-2" data-name="Rectangle-2" class="cls-22" d="M172.52,149.31,160.91,163.7l-11.15-14.39Z" transform="translate(-53.82)"/><g id="Dot-3" data-name="Dot"><ellipse class="cls-17" cx="267.32" cy="78.65" rx="14" ry="12.43"/></g></g><g id="Single_connection-3" data-name="Single connection"><path id="Connection-4" data-name="Connection" class="cls-16" d="M319.14,90.9v65.2h4V90.9Z" transform="translate(-53.82)"/><path id="Rectangle-4" data-name="Rectangle" class="cls-18" d="M332.52,149.31,321.14,163.7l-11.38-14.39Z" transform="translate(-53.82)"/></g><g id="Action_State_chang" data-name="Action State chang" class="cls-23"><text class="cls-24" transform="translate(82.95 185.76)">Se<tspan class="cls-25" x="16.48" y="0">r</tspan><tspan x="22.43" y="0">vi</tspan><tspan class="cls-11" x="33.84" y="0">c</tspan><tspan class="cls-26" x="40.8" y="0">e</tspan></text></g><g id="Action_State_chang-2" data-name="Action State chang" class="cls-23"><text class="cls-27" transform="translate(242.95 185.76)">Se<tspan class="cls-25" x="16.48" y="0">r</tspan><tspan x="22.43" y="0">vi</tspan><tspan class="cls-11" x="33.84" y="0">c</tspan><tspan class="cls-26" x="40.8" y="0">e</tspan><tspan x="-34.4" y="19.2">(e.g. Bulky </tspan><tspan class="cls-28" x="38.4" y="19.2">W</tspan><tspan class="cls-29" x="50.72" y="19.2">a</tspan><tspan class="cls-30" x="58.78" y="19.2">s</tspan><tspan class="cls-31" x="65.17" y="19.2">t</tspan><tspan x="70.35" y="19.2">e)</tspan></text></g><g id="Action_State_chang-3" data-name="Action State chang" class="cls-23"><text class="cls-24" transform="translate(402.95 185.76)">Se<tspan class="cls-25" x="16.48" y="0">r</tspan><tspan x="22.43" y="0">vi</tspan><tspan class="cls-11" x="33.84" y="0">c</tspan><tspan class="cls-26" x="40.8" y="0">e</tspan></text></g><rect class="cls-20" x="203.82" y="26.05" width="126.99" height="52.6" rx="26.3"/><g id="Action_State_chang-4" data-name="Action State chang" class="cls-23"><text class="cls-27" transform="translate(226.41 47.35)">Se<tspan class="cls-25" x="16.48" y="0">r</tspan><tspan x="22.43" y="0">vi</tspan><tspan class="cls-11" x="33.84" y="0">c</tspan><tspan class="cls-26" x="40.8" y="0">e A</tspan><tspan class="cls-10" x="60.64" y="0">r</tspan><tspan class="cls-32" x="66.03" y="0">e</tspan><tspan class="cls-26" x="73.74" y="0">a</tspan><tspan x="4.42" y="19.2">(e.g. Pla</tspan><tspan class="cls-11" x="57.64" y="19.2">c</tspan><tspan x="64.6" y="19.2">e)</tspan></text></g><rect class="cls-20" x="208.85" y="280.38" width="116.94" height="27.79" rx="13.89"/><g id="Action_State_chang-5" data-name="Action State chang" class="cls-23"><text class="cls-33" transform="translate(223.07 299.36)"><tspan class="cls-34">U</tspan><tspan class="cls-26" x="10.26" y="0">ser Journ</tspan><tspan class="cls-35" x="73.01" y="0">e</tspan><tspan x="81.02" y="0">y</tspan></text></g></g><path class="cls-4" d="M128.37,344.75V335a7.5,7.5,0,0,1,7.36-7.63H501.56A8.5,8.5,0,0,1,509.9,336v8.75" transform="translate(-53.82)"/><path class="cls-5" d="M172,377.76a22,22,0,0,1-6.89-1.1,2,2,0,0,0-2,.46l-4.24,4.25a29.13,29.13,0,0,1-12.72-12.7l4.25-4.27a1.89,1.89,0,0,0,.48-1.94,22.09,22.09,0,0,1-1.1-6.89,1.94,1.94,0,0,0-1.93-1.93h-6.75a1.94,1.94,0,0,0-1.93,1.93,32.79,32.79,0,0,0,32.8,32.8,1.94,1.94,0,0,0,1.93-1.93v-6.75A1.94,1.94,0,0,0,172,377.76Zm-15.44-24.12v19.29l5.79-5.79h11.58v-13.5Z" transform="translate(-53.82)"/><path class="cls-5" d="M402.5,363.46v-1.92l-5.77,3.84L391,361.54v1.92l5.77,3.85Zm1.92-9.62H366a3.86,3.86,0,0,0-3.85,3.85v26.92a3.86,3.86,0,0,0,3.85,3.85h38.46a3.85,3.85,0,0,0,3.83-3.85l0-26.92A3.86,3.86,0,0,0,404.42,353.84Zm-26.92,5.77a5.77,5.77,0,1,1-5.77,5.77A5.76,5.76,0,0,1,377.5,359.61ZM389,382.69H366v-1.92c0-3.85,7.69-6,11.54-6s11.53,2.11,11.53,6Zm15.39-11.54H389V359.61h15.39Z" transform="translate(-53.82)"/><path class="cls-5" d="M225.18,353.93H195.05a4.31,4.31,0,0,0-4.31,4.31v25.83a4.31,4.31,0,0,0,4.31,4.3h8.61v-4.3h-8.61V362.54h30.13v21.53h-8.61v4.3h8.61a4.32,4.32,0,0,0,4.31-4.3V358.24A4.31,4.31,0,0,0,225.18,353.93Zm-15.06,12.92-8.61,8.61H208v12.91h4.31V375.46h6.45Z" transform="translate(-53.82)"/><path class="cls-5" d="M280.76,353.79H250.63a4.3,4.3,0,0,0-4.31,4.3v25.83a4.3,4.3,0,0,0,4.31,4.3h30.13a4.31,4.31,0,0,0,4.3-4.3V358.09A4.29,4.29,0,0,0,280.76,353.79Zm0,30.13H250.63V362.39h30.13Z" transform="translate(-53.82)"/><path class="cls-5" d="M340.52,353.79H305.79a4.33,4.33,0,0,0-4.32,4.34l0,26.05a4.36,4.36,0,0,0,4.35,4.34h34.73a4.35,4.35,0,0,0,4.34-4.34V358.13A4.35,4.35,0,0,0,340.52,353.79Zm-10.85,30.39H305.79v-8.69h23.88Zm0-10.86H305.79v-8.68h23.88Zm10.85,10.86h-8.68V364.64h8.68Z" transform="translate(-53.82)"/><path class="cls-36" d="M475.79,381.68l6.31-6.19a18.28,18.28,0,0,0-2.1-.13c-5.63,0-16.85,2.82-16.85,8.42V388h19ZM480,371.15a8.42,8.42,0,1,0-8.42-8.42,8.42,8.42,0,0,0,8.42,8.42" transform="translate(-53.82)"/><path class="cls-36" d="M489.4,389.05l-7.3-7.37,2.95-3,4.35,4.38,10.8-10.89,2.95,3Z" transform="translate(-53.82)"/><path class="cls-5" d="M445.46,377.19a1.9,1.9,0,0,0-.9-1.63l-8.65-5.06-8.66,5.06a1.91,1.91,0,0,0-.91,1.63v9.56a1.92,1.92,0,0,0,1.91,1.92h15.31a1.92,1.92,0,0,0,1.91-1.92ZM435.91,382,428,377l7.9-4.63,7.9,4.63Z" transform="translate(-53.82)"/><path class="cls-5" d="M443.52,353.93H428.29a1.91,1.91,0,0,0-1.9,1.91V373l3.81-3.81h13.33a1.91,1.91,0,0,0,1.91-1.9V355.84A1.92,1.92,0,0,0,443.52,353.93Zm-13.33,6.67h11.43v1.91H430.19Zm7.62,4.76h-7.62v-1.9h7.62Zm3.81-5.71H430.19v-1.91h11.43Z" transform="translate(-53.82)"/><line class="cls-6" x1="121.12" y1="371.15" x2="129.63" y2="371.15"/><polygon class="cls-7" points="128.31 375.64 136.09 371.15 128.31 366.67 128.31 375.64"/><line class="cls-6" x1="173.66" y1="371" x2="184.78" y2="371"/><polygon class="cls-7" points="183.47 375.49 191.24 371 183.47 366.52 183.47 375.49"/><line class="cls-6" x1="229.23" y1="371" x2="240.13" y2="371"/><polygon class="cls-7" points="238.82 375.49 246.59 371 238.82 366.52 238.82 375.49"/><line class="cls-6" x1="289.12" y1="371" x2="300.37" y2="371"/><polygon class="cls-7" points="299.05 375.49 306.82 371 299.05 366.52 299.05 375.49"/><line class="cls-6" x1="352.29" y1="371" x2="364.18" y2="371"/><polygon class="cls-7" points="362.87 375.49 370.64 371 362.87 366.52 362.87 375.49"/><line class="cls-6" x1="393.33" y1="371" x2="401.19" y2="371"/><polygon class="cls-7" points="399.88 375.49 407.65 371 399.88 366.52 399.88 375.49"/><text class="cls-8" transform="translate(83.13 402.83)">Con<tspan class="cls-11" x="19.92" y="0">t</tspan><tspan x="23.72" y="0">a</tspan><tspan class="cls-10" x="29.77" y="0">c</tspan><tspan x="35.12" y="0">t </tspan><tspan class="cls-11" x="1.44" y="12">c</tspan><tspan x="6.66" y="12">ouncil</tspan></text><text class="cls-8" transform="translate(149.34 402.83)">Go <tspan x="-8.84" y="12">online</tspan></text><text class="cls-8" transform="translate(199.27 402.83)"><tspan class="cls-10">R</tspan><tspan class="cls-14" x="6.71" y="0">e</tspan><tspan x="12.49" y="0">ad </tspan><tspan x="4.12" y="12">I</tspan><tspan class="cls-10" x="7.27" y="12">A</tspan><tspan x="13.68" y="12">G</tspan></text><text class="cls-8" transform="translate(255.87 402.83)">Fill in <tspan class="cls-10" x="1.46" y="12">f</tspan><tspan x="4.84" y="12">orm</tspan></text><text class="cls-8" transform="translate(320.8 402.83)">G<tspan class="cls-10" x="7.4" y="0">e</tspan><tspan x="13.24" y="0">t </tspan><tspan x="-5.33" y="12">email</tspan></text><text class="cls-8" transform="translate(366.99 402.83)">N<tspan class="cls-15" x="7.76" y="0">o</tspan><tspan x="14.06" y="0">tify </tspan><tspan x="7.14" y="12">me</tspan></text><text class="cls-8" transform="translate(410.18 402.83)"><tspan class="cls-10">R</tspan><tspan x="6.71" y="0">e</tspan><tspan class="cls-11" x="12.66" y="0">c</tspan><tspan x="17.88" y="0">ei</tspan><tspan class="cls-9" x="26.78" y="0">v</tspan><tspan x="32.34" y="0">e </tspan><tspan x="1.56" y="12">se</tspan><tspan class="cls-37" x="12.54" y="12">r</tspan><tspan x="17" y="12">vi</tspan><tspan class="cls-11" x="25.56" y="12">c</tspan><tspan x="30.78" y="12">e</tspan></text><line class="cls-3" x1="267.32" y1="444.52" x2="267.32" y2="425.35"/><path class="cls-4" d="M185.88,412.17v6.11c0,4.36,2.76,7.07,9.24,7.07H447.31c7.44,0,9.1-2.6,9.1-7.54v-5.64" transform="translate(-53.82)"/><rect class="cls-20" x="201.6" y="444.52" width="131.43" height="27.79" rx="13.89"/><g id="Action_State_chang-6" data-name="Action State chang" class="cls-23"><text class="cls-33" transform="translate(216.25 463.5)">Online Journ<tspan class="cls-35" x="86.64" y="0">e</tspan><tspan class="cls-26" x="94.65" y="0">y</tspan></text></g><rect class="cls-20" x="223.67" y="537.14" width="87.28" height="27.79" rx="13.89"/><g id="Action_State_chang-7" data-name="Action State chang" class="cls-23"><text class="cls-33" transform="translate(239.6 556.11)"><tspan class="cls-38">P</tspan><tspan class="cls-31" x="8.37" y="0">a</tspan><tspan class="cls-39" x="16.21" y="0">t</tspan><tspan class="cls-32" x="21.3" y="0">t</tspan><tspan x="26.48" y="0">erns</tspan></text></g><text class="cls-8" transform="translate(201.59 345.08)"><tspan class="cls-40">E</tspan><tspan class="cls-41" x="5.95" y="0">x</tspan><tspan x="11.18" y="0">ample of a user journ</tspan><tspan class="cls-42" x="116.9" y="0">e</tspan><tspan x="122.91" y="0">y:</tspan></text><text class="cls-8" transform="translate(183.59 601.35)"><tspan class="cls-40">E</tspan><tspan class="cls-41" x="5.95" y="0">x</tspan><tspan x="11.18" y="0">ample of a se</tspan><tspan class="cls-37" x="77.09" y="0">r</tspan><tspan x="81.55" y="0">vi</tspan><tspan class="cls-11" x="90.1" y="0">c</tspan><tspan x="95.32" y="0">e </tspan><tspan class="cls-14" x="103.68" y="0">pa</tspan><tspan class="cls-12" x="116.05" y="0">t</tspan><tspan class="cls-14" x="119.86" y="0">t</tspan><tspan x="123.75" y="0">ern fl</tspan><tspan class="cls-9" x="149.4" y="0">o</tspan><tspan x="155.85" y="0">w:</tspan></text><path class="cls-5" d="M171.61,610.54H141.48a4.3,4.3,0,0,0-4.31,4.28v25.65a4.29,4.29,0,0,0,4.31,4.28h30.13a4.3,4.3,0,0,0,4.3-4.28V614.82A4.29,4.29,0,0,0,171.61,610.54Zm0,29.93H141.48V619.1h30.13Zm-15.07-19.35a4.16,4.16,0,1,1-4.16,4.16A4.15,4.15,0,0,1,156.54,621.12Zm8.32,16.64H148.22v-1.38c0-2.78,5.55-4.3,8.32-4.3s8.32,1.52,8.32,4.3Z" transform="translate(-53.82)"/><path class="cls-43" d="M225.18,610.54H195.05a4.33,4.33,0,0,0-4.31,4.35v26.05a4.33,4.33,0,0,0,4.31,4.34h30.13a4.34,4.34,0,0,0,4.31-4.34V614.89A4.33,4.33,0,0,0,225.18,610.54Zm1,30.4H193.88V619.1h32.35Zm-28.94-17.45h19.3m-19.3,4.27,25.41-.11m-25.41,4.6h19.3m-19.3,4.34h12.83" transform="translate(-53.82)"/><path class="cls-5" d="M283.06,610.54H248.32a4.35,4.35,0,0,0-4.32,4.35l0,26.05a4.36,4.36,0,0,0,4.34,4.34h34.74a4.36,4.36,0,0,0,4.34-4.34V614.89A4.36,4.36,0,0,0,283.06,610.54Zm-10.86,30.4H248.32v-8.69H272.2Zm0-10.86H248.32V621.4H272.2Zm10.86,10.86h-8.69V621.4h8.69Z" transform="translate(-53.82)"/><path class="cls-5" d="M461.15,610.5H422.8a3.85,3.85,0,0,0-3.84,3.84v26.85A3.85,3.85,0,0,0,422.8,645h38.35a3.83,3.83,0,0,0,3.82-3.83l0-26.85A3.85,3.85,0,0,0,461.15,610.5Zm-26.85,5.76a5.75,5.75,0,1,1-5.75,5.75A5.75,5.75,0,0,1,434.3,616.26Zm11.51,23h-23v-1.92c0-3.84,7.67-5.94,11.5-5.94s11.51,2.1,11.51,5.94Zm7.38-7.67h3.15l2.89,3.83-3.81,3.82a14.33,14.33,0,0,1,0-23l3.81,3.81-2.89,3.84h-3.15a11.31,11.31,0,0,0,0,7.67Z" transform="translate(-53.82)"/><path class="cls-1" d="M438.87,517.59h24v24h-24Z" transform="translate(-53.82)"/><path class="cls-5" d="M323.49,630.22c-1.95-.5-2.58-1-2.58-1.84s.87-1.59,2.32-1.59,2.09.73,2.14,1.8h1.9a3.41,3.41,0,0,0-2.75-3.26v-1.88h-2.58v1.85c-1.66.36-3,1.44-3,3.1,0,2,1.64,3,4,3.54,2.15.51,2.58,1.27,2.58,2.07,0,.59-.43,1.53-2.32,1.53s-2.46-.79-2.56-1.8h-1.88a3.58,3.58,0,0,0,3.15,3.28v1.86h2.58V637c1.67-.32,3-1.29,3-3C327.52,631.56,325.43,630.73,323.49,630.22Z" transform="translate(-53.82)"/><path class="cls-5" d="M313.1,630.22c-1.94-.5-2.57-1-2.57-1.84s.87-1.59,2.32-1.59,2.09.73,2.14,1.8h1.9a3.42,3.42,0,0,0-2.76-3.26v-1.88h-2.57v1.85c-1.66.36-3,1.44-3,3.1,0,2,1.64,3,4,3.54,2.14.51,2.57,1.27,2.57,2.07,0,.59-.42,1.53-2.31,1.53s-2.47-.79-2.56-1.8H308.4a3.59,3.59,0,0,0,3.16,3.28v1.86h2.57V637c1.67-.32,3-1.29,3-3C317.13,631.56,315.05,630.73,313.1,630.22Z" transform="translate(-53.82)"/><path class="cls-5" d="M333.58,630.22c-1.94-.5-2.57-1-2.57-1.84s.87-1.59,2.31-1.59,2.1.73,2.15,1.8h1.89a3.41,3.41,0,0,0-2.75-3.26v-1.88H332v1.85c-1.67.36-3,1.44-3,3.1,0,2,1.63,3,4,3.54,2.14.51,2.57,1.27,2.57,2.07,0,.59-.42,1.53-2.32,1.53s-2.46-.79-2.55-1.8h-1.89A3.59,3.59,0,0,0,332,637v1.86h2.57V637c1.67-.32,3-1.29,3-3C337.61,631.56,335.53,630.73,333.58,630.22Z" transform="translate(-53.82)"/><rect class="cls-20" x="163.48" y="701.28" width="106.57" height="27.79" rx="13.89"/><g id="Action_State_chang-8" data-name="Action State chang" class="cls-23"><text class="cls-33" transform="translate(175.54 720.26)">Online <tspan class="cls-32" x="47.28" y="0">F</tspan><tspan x="54.96" y="0">orm</tspan></text></g><path class="cls-4" d="M84.06,766.36v-9.78a7.43,7.43,0,0,1,7.19-7.64H449a8.42,8.42,0,0,1,8.16,8.66v8.76" transform="translate(-53.82)"/><g id="Start_page" data-name="Start page"><g id="Template"><g id="Start_page-2" data-name="Start page-2"><g id="Canvas_Browser" data-name="Canvas Browser"><rect id="BG" class="cls-2" x="39.32" y="758.32" width="56.65" height="45.09"/><rect id="Top_Bar" data-name="Top Bar" class="cls-44" x="39.32" y="758.32" width="56.65" height="3.18"/><rect id="Divider" class="cls-45" x="39.32" y="761.21" width="56.65" height="0.29"/><path id="Combined_Shape" data-name="Combined Shape" class="cls-45" d="M98.37,759.76a.57.57,0,0,1,.55-.58.58.58,0,0,1,.58.56v0a.57.57,0,0,1-1.13,0Zm-1.89,0a.57.57,0,1,1,1.13,0v0a.57.57,0,0,1-1.13,0Zm-1.89,0a.56.56,0,0,1,.56-.57.57.57,0,0,1,.57.57h0a.57.57,0,0,1-.57.58h0A.56.56,0,0,1,94.59,759.76Z" transform="translate(-53.82)"/><path id="BG_Border_Top_2B99C93C-C2D2-47D8-92D7-E97EC61A7761" data-name="BG Border Top 2B99C93C-C2D2-47D8-92D7-E97EC61A7761" class="cls-46" d="M92.85,758h57.81l-.87.29H93.14Z" transform="translate(-53.82)"/><path id="BG_Border_Right_2B99C93C-C2D2-47D8-92D7-E97EC61A7761" data-name="BG Border Right 2B99C93C-C2D2-47D8-92D7-E97EC61A7761" class="cls-46" d="M150.66,758v46.24l-.87-.86V758.32Z" transform="translate(-53.82)"/><path id="BG_Border_Bottom_2B99C93C-C2D2-47D8-92D7-E97EC61A7761" data-name="BG Border Bottom 2B99C93C-C2D2-47D8-92D7-E97EC61A7761" class="cls-46" d="M150.66,804.27H92.85l.29-.86h56.65Z" transform="translate(-53.82)"/><path id="BG_Border_Left_2B99C93C-C2D2-47D8-92D7-E97EC61A7761" data-name="BG Border Left 2B99C93C-C2D2-47D8-92D7-E97EC61A7761" class="cls-46" d="M92.85,804.27V758l.29.29v45.09Z" transform="translate(-53.82)"/></g><g id="Object_SideContent" data-name="Object SideContent"><g id="Text_Link" data-name="Text Link"><g id="_" data-name=" "><rect id="Rectangle-5" data-name="Rectangle" class="cls-16" x="78.63" y="781.15" width="4.62" height="1.16"/></g></g><g id="Text_Link-2" data-name="Text Link-2"><g id="_2" data-name=" 2"><rect id="Rectangle-2-3" data-name="Rectangle-2" class="cls-16" x="78.63" y="778.84" width="4.62" height="1.16"/></g></g><g id="Text_Link-3" data-name="Text Link-3"><g id="_3" data-name=" 3"><rect id="Rectangle-3-2" data-name="Rectangle-3" class="cls-16" x="78.63" y="776.53" width="4.62" height="1.16"/></g></g><g id="Heading_Medium" data-name="Heading Medium"><rect id="Rectangle-4-2" data-name="Rectangle-4" class="cls-46" x="78.63" y="773.06" width="9.25" height="2.31"/></g><g id="Side_Bar" data-name="Side Bar"><rect id="Rectangle-5-2" data-name="Rectangle-5" class="cls-47" x="78.63" y="770.75" width="16.19" height="0.29"/></g></g><g id="Button_StartNow" data-name="Button StartNow"><g id="_4" data-name=" 4"><rect id="Rectangle-6" class="cls-48" x="40.48" y="792.71" width="13.87" height="3.47"/></g></g><g id="Text_Body" data-name="Text Body"><g id="_5" data-name=" 5"><rect id="Rectangle-7" class="cls-46" x="40.48" y="789.24" width="18.5" height="1.16"/></g><g id="_6" data-name=" 6"><rect id="Rectangle-8" class="cls-46" x="40.48" y="786.93" width="27.75" height="1.16"/></g><g id="_7" data-name=" 7"><rect id="Rectangle-9" class="cls-46" x="40.48" y="784.62" width="27.75" height="1.16"/></g><g id="_8" data-name=" 8"><rect id="Rectangle-10" class="cls-46" x="40.48" y="782.31" width="27.75" height="1.16"/></g><g id="_9" data-name=" 9"><rect id="Rectangle-11" class="cls-46" x="40.48" y="780" width="27.75" height="1.16"/></g><g id="_10" data-name=" 10"><rect id="Rectangle-12" class="cls-46" x="40.48" y="777.68" width="18.5" height="1.16"/></g></g><g id="Text_Heading_Xlarge" data-name="Text Heading Xlarge"><g id="_11" data-name=" 11"><rect id="Rectangle-13" class="cls-46" x="40.48" y="770.75" width="34.68" height="4.62"/></g></g><g id="Object_Breadcrumb" data-name="Object Breadcrumb"><g id="Crumb_Rt" data-name="Crumb Rt"><rect id="Rectangle-14" class="cls-49" x="52.04" y="767.28" width="4.62" height="0.58"/></g><g id="Crumb_Cn" data-name="Crumb Cn"><rect id="Rectangle-15" class="cls-49" x="46.26" y="767.28" width="4.62" height="0.58"/></g><g id="Crumb_Lf" data-name="Crumb Lf"><rect id="Rectangle-16" class="cls-49" x="40.48" y="767.28" width="4.62" height="0.58"/></g></g><g id="Object_Header" data-name="Object Header"><g id="_Global_Header_Text" data-name=" Global Header Text" class="cls-23"><text class="cls-50" transform="translate(40.47 764.97)"><tspan class="cls-51">S</tspan><tspan x="1.15" y="0">tockport.gov.uk</tspan></text></g><g id="Bar"><rect id="Rectangle-17" class="cls-16" x="40.48" y="765.83" width="54.34" height="0.29"/></g></g></g></g><g id="Title" class="cls-23"><text class="cls-52" transform="translate(57.49 811.5)">S<tspan class="cls-53" x="2.31" y="0">tart page</tspan></text></g></g><g id="Single_Short" data-name="Single Short"><g id="Single_connection-4" data-name="Single connection"><path id="Connection-5" data-name="Connection" class="cls-16" d="M150.37,782.33h37v-2.15h-37Z" transform="translate(-53.82)"/><g id="Dot-4" data-name="Dot"><circle class="cls-3" cx="96.4" cy="781.26" r="2.73"/><circle class="cls-2" cx="96.4" cy="781.26" r="3.12"/></g><path id="Rectangle-18" class="cls-16" d="M182.74,776.53l9.25,4.62-9.25,4.63Z" transform="translate(-53.82)"/></g></g><g id="Where_do_you_live_" data-name="Where do you live "><g id="Template-2"><g id="Question_page_Radio_input" data-name="Question page Radio input"><g id="Canvas_Browser-2" data-name="Canvas Browser-2"><rect id="BG-2" class="cls-2" x="138.46" y="758.32" width="56.65" height="45.09"/><rect id="Top_Bar-2" data-name="Top Bar-2" class="cls-44" x="138.46" y="758.32" width="56.65" height="3.18"/><rect id="Divider-2" class="cls-45" x="138.46" y="761.21" width="56.65" height="0.29"/><path id="Combined_Shape-2" data-name="Combined Shape-2" class="cls-45" d="M197.51,759.76a.57.57,0,0,1,.55-.58.58.58,0,0,1,.58.56v0a.57.57,0,0,1-1.13,0A0,0,0,0,1,197.51,759.76Zm-1.89,0a.57.57,0,0,1,.55-.58.58.58,0,0,1,.58.56v0a.57.57,0,1,1-1.13,0Zm-1.89,0a.56.56,0,0,1,.56-.57.57.57,0,0,1,.57.57h0a.57.57,0,0,1-.57.58h0A.56.56,0,0,1,193.73,759.76Z" transform="translate(-53.82)"/><path id="BG_Border_Top_2B99C93C-C2D2-47D8-92D7-E97EC61A7761-2" data-name="BG Border Top 2B99C93C-C2D2-47D8-92D7-E97EC61A7761-2" class="cls-46" d="M192,758H249.8l-.87.29H192.28Z" transform="translate(-53.82)"/><path id="BG_Border_Right_2B99C93C-C2D2-47D8-92D7-E97EC61A7761-2" data-name="BG Border Right 2B99C93C-C2D2-47D8-92D7-E97EC61A7761-2" class="cls-46" d="M249.8,758v46.24l-.87-.86V758.32Z" transform="translate(-53.82)"/><path id="BG_Border_Bottom_2B99C93C-C2D2-47D8-92D7-E97EC61A7761-2" data-name="BG Border Bottom 2B99C93C-C2D2-47D8-92D7-E97EC61A7761-2" class="cls-46" d="M249.8,804.27H192l.29-.86h56.65Z" transform="translate(-53.82)"/><path id="BG_Border_Left_2B99C93C-C2D2-47D8-92D7-E97EC61A7761-2" data-name="BG Border Left 2B99C93C-C2D2-47D8-92D7-E97EC61A7761-2" class="cls-46" d="M192,804.27V758l.29.29v45.09Z" transform="translate(-53.82)"/></g><g id="Button_Primary" data-name="Button Primary"><g id="_12" data-name=" 12"><rect id="Rectangle-19" class="cls-48" x="139.61" y="791.56" width="9.25" height="2.31"/></g></g><g id="Text_Heading_Large" data-name="Text Heading Large"><g id="_13" data-name=" 13"><rect id="Rectangle-20" class="cls-46" x="139.61" y="770.75" width="34.68" height="3.47"/></g></g><g id="Object_Header-2" data-name="Object Header-2"><g id="_Global_Header_Text-2" data-name=" Global Header Text-2" class="cls-23"><text class="cls-50" transform="translate(139.61 764.97)"><tspan class="cls-51">S</tspan><tspan x="1.15" y="0">tockport.gov.uk</tspan></text></g><g id="Bar-2"><rect id="Rectangle-21" class="cls-16" x="139.61" y="765.83" width="54.34" height="0.29"/></g></g><g id="Form_Checkbox_input" data-name="Form Checkbox input"><g id="Form_Label" data-name="Form Label"><g id="Label"><rect id="Rectangle-22" class="cls-46" x="144.24" y="786.93" width="23.12" height="1.16"/></g></g><g id="Input"><g id="Group_1" data-name="Group 1"><circle id="Mask-7" class="cls-1" cx="141.35" cy="787.51" r="1.73"/><g class="cls-54"><g id="Mask_Group_1" data-name="Mask Group 1"><g id="Radio"><rect id="Rectangle-23" class="cls-46" x="139.61" y="785.78" width="3.47" height="3.47"/></g></g></g></g><g id="Group_2" data-name="Group 2"><circle id="Mask-8" class="cls-1" cx="141.35" cy="787.51" r="1.16"/><g class="cls-55"><g id="Mask_Group_2" data-name="Mask Group 2"><rect id="Inside" class="cls-2" x="140.19" y="786.35" width="2.31" height="2.31"/></g></g></g></g><g id="Form_Label-2" data-name="Form Label-2"><g id="Label-2"><rect id="Rectangle-24" class="cls-46" x="144.24" y="782.31" width="23.12" height="1.16"/></g></g><g id="Input-2"><g id="Group_1-2" data-name="Group 1-2"><circle id="Mask-9" class="cls-1" cx="141.35" cy="782.89" r="1.73"/><g class="cls-56"><g id="Mask_Group_1-2" data-name="Mask Group 1-2"><g id="Radio-2"><rect id="Rectangle-25" class="cls-46" x="139.61" y="781.15" width="3.47" height="3.47"/></g></g></g></g><g id="Group_2-2" data-name="Group 2-2"><circle id="Mask-10" class="cls-1" cx="141.35" cy="782.89" r="1.16"/><g class="cls-57"><g id="Mask_Group_2-2" data-name="Mask Group 2-2"><rect id="Inside-2" class="cls-2" x="140.19" y="781.73" width="2.31" height="2.31"/></g></g></g></g><g id="Form_Label-3" data-name="Form Label-3"><g id="Label-3"><rect id="Rectangle-26" class="cls-46" x="144.24" y="777.68" width="23.12" height="1.16"/></g></g><g id="Input-3"><g id="Group_1-3" data-name="Group 1-3"><circle id="Mask-11" class="cls-1" cx="141.35" cy="778.26" r="1.73"/><g class="cls-58"><g id="Mask_Group_1-3" data-name="Mask Group 1-3"><g id="Radio-3"><rect id="Rectangle-27" class="cls-46" x="139.61" y="776.53" width="3.47" height="3.47"/></g></g></g></g><g id="Group_2-3" data-name="Group 2-3"><circle id="Mask-12" class="cls-1" cx="141.35" cy="778.26" r="1.16"/><g class="cls-59"><g id="Mask_Group_2-3" data-name="Mask Group 2-3"><rect id="Inside-3" class="cls-2" x="140.19" y="777.1" width="2.31" height="2.31"/></g></g></g></g></g><g id="Object_Back" data-name="Object Back"><g id="Crumb_Lf-2" data-name="Crumb Lf-2"><rect id="Rectangle-28" class="cls-49" x="139.61" y="767.28" width="4.62" height="0.58"/></g></g></g></g><g id="Title-2" class="cls-23"><text class="cls-60" transform="translate(147.51 811.5)">Where do you live?</text></g></g><g id="What_is_your_nationality_" data-name="What is your nationality "><g id="Template-3"><g id="Question_page_Checkbox_input" data-name="Question page Checkbox input"><g id="Canvas_Browser-3" data-name="Canvas Browser-3"><rect id="BG-3" class="cls-2" x="237.88" y="758.32" width="56.65" height="45.09"/><rect id="Top_Bar-3" data-name="Top Bar-3" class="cls-44" x="237.88" y="758.32" width="56.65" height="3.18"/><rect id="Divider-3" class="cls-45" x="237.88" y="761.21" width="56.65" height="0.29"/><path id="Combined_Shape-3" data-name="Combined Shape-3" class="cls-45" d="M296.93,759.76a.57.57,0,0,1,.56-.58.58.58,0,0,1,.58.56v0a.57.57,0,0,1-1.14,0Zm-1.89,0a.57.57,0,0,1,.56-.58.58.58,0,0,1,.58.56v0a.57.57,0,0,1-1.14,0Zm-1.89,0a.57.57,0,0,1,.57-.57.58.58,0,0,1,.57.57h0a.58.58,0,0,1-.57.58h0A.57.57,0,0,1,293.15,759.76Z" transform="translate(-53.82)"/><path id="BG_Border_Top_2B99C93C-C2D2-47D8-92D7-E97EC61A7761-3" data-name="BG Border Top 2B99C93C-C2D2-47D8-92D7-E97EC61A7761-3" class="cls-46" d="M291.42,758h57.8l-.86.29H291.71Z" transform="translate(-53.82)"/><path id="BG_Border_Right_2B99C93C-C2D2-47D8-92D7-E97EC61A7761-3" data-name="BG Border Right 2B99C93C-C2D2-47D8-92D7-E97EC61A7761-3" class="cls-46" d="M349.22,758v46.24l-.86-.86V758.32Z" transform="translate(-53.82)"/><path id="BG_Border_Bottom_2B99C93C-C2D2-47D8-92D7-E97EC61A7761-3" data-name="BG Border Bottom 2B99C93C-C2D2-47D8-92D7-E97EC61A7761-3" class="cls-46" d="M349.22,804.27h-57.8l.29-.86h56.65Z" transform="translate(-53.82)"/><path id="BG_Border_Left_2B99C93C-C2D2-47D8-92D7-E97EC61A7761-3" data-name="BG Border Left 2B99C93C-C2D2-47D8-92D7-E97EC61A7761-3" class="cls-46" d="M291.42,804.27V758l.29.29v45.09Z" transform="translate(-53.82)"/></g><g id="Button_Primary-2" data-name="Button Primary-2"><g id="_14" data-name=" 14"><rect id="Rectangle-30" class="cls-48" x="239.04" y="791.56" width="9.25" height="2.31"/></g></g><g id="Text_Heading_Large-2" data-name="Text Heading Large-2"><g id="_15" data-name=" 15"><rect id="Rectangle-31" class="cls-46" x="239.04" y="770.75" width="34.68" height="3.47"/></g></g><g id="Object_Header-3" data-name="Object Header-3"><g id="_Global_Header_Text-3" data-name=" Global Header Text-3" class="cls-23"><text class="cls-50" transform="translate(239.04 764.97)"><tspan class="cls-61">S</tspan><tspan x="1.15" y="0">tockport.gov.uk</tspan></text></g><g id="Bar-3"><rect id="Rectangle-32" class="cls-16" x="239.04" y="765.83" width="54.34" height="0.29"/></g></g><g id="Form_Checkbox_input-2" data-name="Form Checkbox input-2"><g id="Form_Label-4" data-name="Form Label-4"><g id="Label-4"><rect id="Rectangle-33" class="cls-46" x="243.66" y="786.93" width="23.12" height="1.16"/></g></g><g id="Input-4"><g id="Checkbox"><rect id="Rectangle-34" class="cls-46" x="239.04" y="785.78" width="3.47" height="3.47"/></g><rect id="Inside-4" class="cls-2" x="239.62" y="786.35" width="2.31" height="2.31"/></g><g id="Form_Label-5" data-name="Form Label-5"><g id="Label-5"><rect id="Rectangle-35" class="cls-46" x="243.66" y="782.31" width="23.12" height="1.16"/></g></g><g id="Input-5"><g id="Checkbox-2"><rect id="Rectangle-36" class="cls-46" x="239.04" y="781.15" width="3.47" height="3.47"/></g><rect id="Inside-5" class="cls-2" x="239.62" y="781.73" width="2.31" height="2.31"/></g><g id="Form_Label-6" data-name="Form Label-6"><g id="Label-6"><rect id="Rectangle-37" class="cls-46" x="243.66" y="777.68" width="23.12" height="1.16"/></g></g><g id="Input-6"><g id="Checkbox-3"><rect id="Rectangle-38" class="cls-46" x="239.04" y="776.53" width="3.47" height="3.47"/></g><rect id="Inside-6" class="cls-2" x="239.62" y="777.1" width="2.31" height="2.31"/></g></g><g id="Object_Back-2" data-name="Object Back-2"><g id="Crumb_Lf-3" data-name="Crumb Lf-3"><rect id="Rectangle-39" class="cls-49" x="239.04" y="767.28" width="4.62" height="0.58"/></g></g></g></g><g id="Title-3" class="cls-23"><text class="cls-60" transform="translate(241.31 811.5)">What is your nationality?</text></g></g><g id="Date_of_birth" data-name="Date of birth"><g id="Template-4"><g id="Question_page_Text_input" data-name="Question page Text input"><g id="Canvas_Browser-4" data-name="Canvas Browser-4"><rect id="BG-4" class="cls-2" x="337.31" y="758.32" width="56.65" height="45.09"/><rect id="Top_Bar-4" data-name="Top Bar-4" class="cls-44" x="337.31" y="758.32" width="56.65" height="3.18"/><rect id="Divider-4" class="cls-45" x="337.31" y="761.21" width="56.65" height="0.29"/><path id="Combined_Shape-4" data-name="Combined Shape-4" class="cls-45" d="M396.36,759.76a.57.57,0,1,1,1.13,0v0a.56.56,0,0,1-.55.58.56.56,0,0,1-.58-.55Zm-1.89,0a.57.57,0,1,1,1.13,0v0a.56.56,0,0,1-.55.58.56.56,0,0,1-.58-.55Zm-1.89,0a.57.57,0,0,1,.57-.57.56.56,0,0,1,.56.57h0a.56.56,0,0,1-.56.58h0A.57.57,0,0,1,392.58,759.76Z" transform="translate(-53.82)"/><path id="BG_Border_Top_2B99C93C-C2D2-47D8-92D7-E97EC61A7761-4" data-name="BG Border Top 2B99C93C-C2D2-47D8-92D7-E97EC61A7761-4" class="cls-46" d="M390.84,758h57.81l-.87.29H391.13Z" transform="translate(-53.82)"/><path id="BG_Border_Right_2B99C93C-C2D2-47D8-92D7-E97EC61A7761-4" data-name="BG Border Right 2B99C93C-C2D2-47D8-92D7-E97EC61A7761-4" class="cls-46" d="M448.65,758v46.24l-.87-.86V758.32Z" transform="translate(-53.82)"/><path id="BG_Border_Bottom_2B99C93C-C2D2-47D8-92D7-E97EC61A7761-4" data-name="BG Border Bottom 2B99C93C-C2D2-47D8-92D7-E97EC61A7761-4" class="cls-46" d="M448.65,804.27H390.84l.29-.86h56.65Z" transform="translate(-53.82)"/><path id="BG_Border_Left_2B99C93C-C2D2-47D8-92D7-E97EC61A7761-4" data-name="BG Border Left 2B99C93C-C2D2-47D8-92D7-E97EC61A7761-4" class="cls-46" d="M390.84,804.27V758l.29.29v45.09Z" transform="translate(-53.82)"/></g><g id="Button_Primary-3" data-name="Button Primary-3"><g id="_16" data-name=" 16"><rect id="Rectangle-41" class="cls-48" x="338.47" y="784.62" width="9.25" height="2.31"/></g></g><g id="Text_Heading_Large-3" data-name="Text Heading Large-3"><g id="_17" data-name=" 17"><rect id="Rectangle-42" class="cls-46" x="338.47" y="770.75" width="34.68" height="3.47"/></g></g><g id="Object_Header-4" data-name="Object Header-4"><g id="_Global_Header_Text-4" data-name=" Global Header Text-4" class="cls-23"><text class="cls-50" transform="translate(338.47 764.97)"><tspan class="cls-61">S</tspan><tspan x="1.15" y="0">tockport.gov.uk</tspan></text></g><g id="Bar-4"><rect id="Rectangle-43" class="cls-16" x="338.47" y="765.83" width="54.34" height="0.29"/></g></g><g id="Form_Text_input" data-name="Form Text input"><g id="Input-7"><g id="Text_input" data-name="Text input"><rect id="Rectangle-44" class="cls-46" x="338.47" y="778.84" width="27.75" height="3.47"/></g><rect id="Inside-7" class="cls-2" x="339.04" y="779.42" width="26.59" height="2.31"/></g><g id="Form_Label-7" data-name="Form Label-7"><g id="Label-7"><rect id="Rectangle-45" class="cls-46" x="338.47" y="776.53" width="18.5" height="1.16"/></g></g></g><g id="Object_Back-3" data-name="Object Back-3"><g id="Crumb_Lf-4" data-name="Crumb Lf-4"><rect id="Rectangle-46" class="cls-49" x="338.47" y="767.28" width="4.62" height="0.58"/></g></g></g></g><g id="Title-4" class="cls-23"><text class="cls-60" transform="translate(352.97 811.5)">Date of birth</text></g></g><g id="Single_Short-2" data-name="Single Short"><g id="Single_connection-5" data-name="Single connection"><path id="Connection-6" data-name="Connection" class="cls-16" d="M249.49,782.44h37v-2.15h-37Z" transform="translate(-53.82)"/><g id="Dot-5" data-name="Dot"><circle class="cls-3" cx="195.52" cy="781.37" r="2.73"/><circle class="cls-2" cx="195.52" cy="781.37" r="3.12"/></g><path id="Rectangle-18-2" data-name="Rectangle-18" class="cls-16" d="M281.86,776.63l9.25,4.63-9.25,4.62Z" transform="translate(-53.82)"/></g></g><g id="Single_Short-3" data-name="Single Short"><g id="Single_connection-6" data-name="Single connection"><path id="Connection-7" data-name="Connection" class="cls-16" d="M349,782.44h37v-2.15H349Z" transform="translate(-53.82)"/><g id="Dot-6" data-name="Dot"><circle class="cls-3" cx="295.02" cy="781.37" r="2.73"/><circle class="cls-2" cx="295.02" cy="781.37" r="3.12"/></g><path id="Rectangle-18-3" data-name="Rectangle-18" class="cls-16" d="M381.36,776.63l9.25,4.63-9.25,4.62Z" transform="translate(-53.82)"/></g></g></svg>